<svg width="41" height="39" viewBox="0 0 41 39" fill="none" xmlns="http://www.w3.org/2000/svg">
<path fill-rule="evenodd" clip-rule="evenodd" d="M9.75 0C4.36522 0 0 4.36522 0 9.75V22.75C0 26.7724 2.4358 30.2259 5.91284 31.7159C4.7488 30.1099 4.0625 28.1351 4.0625 26V13C4.0625 7.61522 8.42772 3.25 13.8125 3.25H26.8125C28.1749 3.25 29.472 3.52943 30.6497 4.03409C28.878 1.58981 25.9997 0 22.75 0H9.75Z" fill="#FE7A59" style="fill:#FE7A59;fill:color(display-p3 0.9961 0.4784 0.3490);fill-opacity:1;"/>
<path fill-rule="evenodd" clip-rule="evenodd" d="M17.875 11.375H30.875C33.5674 11.375 35.75 13.5576 35.75 16.25V29.25C35.75 31.9424 33.5674 34.125 30.875 34.125H17.875C15.1826 34.125 13 31.9424 13 29.25V16.25C13 13.5576 15.1826 11.375 17.875 11.375ZM8.125 16.25C8.125 10.8652 12.4902 6.5 17.875 6.5H30.875C36.2598 6.5 40.625 10.8652 40.625 16.25V29.25C40.625 34.6348 36.2598 39 30.875 39H17.875C12.4902 39 8.125 34.6348 8.125 29.25V16.25ZM17.0211 26.0346C15.9423 27.1135 15.9423 28.8626 17.0211 29.9414C18.1 31.0202 19.8491 31.0202 20.9279 29.9414L31.729 19.1404C32.8078 18.0615 32.8078 16.3124 31.729 15.2336C30.6501 14.1548 28.901 14.1548 27.8222 15.2336L17.0211 26.0346Z" fill="#FE7A59" style="fill:#FE7A59;fill:color(display-p3 0.9961 0.4784 0.3490);fill-opacity:1;"/>
</svg>
